<svg width="175" height="60" viewBox="0 0 175 60" fill="none" xmlns="http://www.w3.org/2000/svg">
<path fill-rule="evenodd" clip-rule="evenodd" d="M1.82366 46.9814L5.64355 43.737C6.52794 42.9857 6.94774 41.8217 6.74615 40.6789L4.99498 30.7471L1.17313 33.9931C0.28992 34.7433 -0.129298 35.9056 0.071903 37.0469L1.82366 46.9814Z" fill="white"/>
<path fill-rule="evenodd" clip-rule="evenodd" d="M13.6709 54.9238L17.4907 51.6794C18.3751 50.9282 18.7949 49.7642 18.5933 48.6213L15.4598 30.8501L11.6379 34.0961C10.7547 34.8464 10.3357 36.0086 10.5367 37.1499L13.6709 54.9238Z" fill="white"/>
<path fill-rule="evenodd" clip-rule="evenodd" d="M24.1452 55.0806L27.9651 51.8361C28.8495 51.0849 29.2693 49.9209 29.0677 48.778L25.9248 30.9529L22.1029 34.1991C21.2197 34.9491 20.8005 36.1116 21.0017 37.2527L24.1452 55.0806Z" fill="white"/>
<path fill-rule="evenodd" clip-rule="evenodd" d="M35.3063 59.1313L39.1261 55.8869C40.0105 55.1356 40.4303 53.9716 40.2287 52.8288L36.3938 31.0791L32.5719 34.3253C31.6885 35.0754 31.2695 36.2378 31.4707 37.3789L35.3063 59.1313Z" fill="white"/>
<path fill-rule="evenodd" clip-rule="evenodd" d="M45.7662 59.2062L49.5861 55.9617C50.4705 55.2105 50.8903 54.0465 50.6887 52.9036L44.7827 19.4094L40.9608 22.6556C40.0776 23.4057 39.6586 24.5681 39.8598 25.7094L45.7662 59.2062Z" fill="white"/>
<path fill-rule="evenodd" clip-rule="evenodd" d="M53.454 43.5593L57.2739 40.3149C58.1583 39.5636 58.5781 38.3996 58.3765 37.2568L53.1725 7.74316L49.3506 10.9894C48.4674 11.7396 48.0484 12.9019 48.2496 14.0432L53.454 43.5593Z" fill="white"/>
<path fill-rule="evenodd" clip-rule="evenodd" d="M60.4569 24.0284L64.2768 20.7839C65.1612 20.0327 65.581 18.8687 65.3794 17.7258L62.2538 0L58.432 3.2462C57.5488 3.99626 57.1298 5.15869 57.331 6.2998L60.4569 24.0284Z" fill="white"/>
<path fill-rule="evenodd" clip-rule="evenodd" d="M88.9086 47.3658V59.009H86.8012V54.0273H81.543V59.009H79.4355V47.3658H81.543V52.0186H86.8012V47.3658H88.9086ZM125.44 59.009H127.547V47.3658H125.44V59.009ZM171.369 52.1844C170.089 51.8217 168.983 51.5087 168.983 50.4909C168.983 49.5506 170.145 49.1277 170.97 49.1277C172.137 49.1277 173.372 49.6013 174.447 50.4612L174.556 50.5484V48.1676L174.523 48.1481C173.407 47.4778 172.234 47.1519 170.938 47.1519C169.848 47.1519 168.841 47.471 168.101 48.0499C167.289 48.6868 166.859 49.5821 166.859 50.638C166.821 53.0276 168.752 53.5383 170.455 53.989C171.753 54.3321 172.874 54.6286 172.86 55.6864C172.86 56.736 171.753 57.2141 170.724 57.2141C169.501 57.2141 168.135 56.673 167.068 55.7667L166.957 55.6727V58.1567L166.989 58.1765C168.041 58.8405 169.38 59.2061 170.757 59.2061C172.866 59.2061 175 57.9577 175 55.5714C175 53.2121 173.071 52.666 171.369 52.1844ZM69.0583 47.3658L70.2067 48.7534C70.5076 49.1167 70.9505 49.3252 71.4221 49.3252H73.1256V59.009H75.2494V49.3252H78.2385V47.3658H69.0583ZM150.369 59.009H148.153L146.986 56.0988H142.647L141.496 59.009H139.329L143.285 49.0505C143.404 48.7507 143.35 48.4103 143.144 48.1622L142.485 47.3658H145.733L145.75 47.4082L150.369 59.009ZM144.816 50.2242L143.339 54.2381H146.31L144.816 50.2242ZM93.1485 57.0825V53.9614H97.7513V52.0843H93.1485V49.2923H98.113V47.3658H89.8552L90.7014 48.3884C90.9206 48.6531 91.0413 48.9881 91.0413 49.3318V59.009H98.1459V57.0825H93.1485ZM105.368 57.0825V53.9614H109.971V52.0843H105.368V49.2923H110.332V47.3658H102.074L102.921 48.3884C103.14 48.6531 103.261 48.9881 103.261 49.3318V59.009H110.365V57.0825H105.368ZM147.773 47.3658L148.922 48.7534C149.222 49.1167 149.665 49.3252 150.137 49.3252H151.969V59.009H154.093V49.3252H157.134V47.3658H147.773ZM138.774 59.0088H136.378L133.865 54.504H132.176V59.0088H130.085V49.279C130.085 48.9355 129.964 48.6003 129.745 48.3356L128.942 47.3658H134.291C135.468 47.3658 136.466 47.6868 137.176 48.2943C137.914 48.9253 138.303 49.8383 138.303 50.935C138.303 52.5112 137.477 53.7041 136.033 54.2199L138.774 59.0088ZM134.291 49.2757H132.176V52.6267H134.291C135.466 52.6267 136.197 51.9848 136.197 50.9512C136.197 49.9176 135.466 49.2757 134.291 49.2757ZM160.742 57.0825V53.9614H165.344V52.0843H160.742V49.2923H165.706V47.3658H157.448L158.295 48.3884C158.514 48.6531 158.634 48.9881 158.634 49.3318V59.009H165.739V57.0825H160.742ZM121.435 47.3658L117.787 53.0274L114.112 47.3963L114.092 47.3658H112.131V59.009H114.189V51.0367L117.738 56.4396L121.302 50.9905V59.009H123.36V47.3658H121.435Z" fill="white"/>
<path fill-rule="evenodd" clip-rule="evenodd" d="M90.8209 30.2595V34.1521C90.8209 36.0264 89.2959 37.5514 87.4216 37.5514H73.6132C71.7388 37.5514 70.2141 36.0264 70.2141 34.1521V30.2595H72.5712V34.1521C72.5712 34.7185 73.0387 35.1794 73.6132 35.1794H87.4216C87.9962 35.1794 88.4637 34.7185 88.4637 34.1521V30.2595H90.8209ZM159.555 40.8269C159.314 40.8269 159.118 40.631 159.118 40.3891V40.3547C159.118 40.1128 159.314 39.9167 159.555 39.9167H160.582V38.584H159.507C158.557 38.584 157.788 39.3536 157.788 40.3029C157.788 40.4859 157.817 40.6617 157.87 40.8269H156.822V42.1552H160.582V40.8269H159.555ZM173.845 23.3977L172.128 24.4025C171.731 24.6348 171.487 25.0601 171.487 25.5198V37.5318H173.845V23.3977ZM95.4915 23.3977L93.7749 24.4025C93.3782 24.6348 93.1344 25.0601 93.1344 25.5198V37.5318H95.4915V23.3977ZM150.974 33.499C150.974 35.7228 149.164 37.5318 146.94 37.5318C145.897 37.5318 144.874 37.1118 144.123 36.377C143.388 37.0909 142.259 37.5318 141.157 37.5318H106.424C104.549 37.5318 103.025 36.0069 103.025 34.1327V25.5198C103.025 25.0601 103.269 24.6348 103.665 24.4025L105.382 23.3977V34.1327C105.382 34.7099 105.85 35.1794 106.424 35.1794H141.279C142.251 35.1094 142.907 34.2948 142.907 33.5782C142.907 31.2594 144.64 29.4916 146.939 29.466C148 29.4582 149.007 29.8635 149.769 30.6183C150.546 31.3863 150.974 32.4093 150.974 33.499ZM148.54 33.499C148.54 32.6168 147.822 31.8992 146.94 31.8992C146.058 31.8992 145.34 32.6168 145.34 33.499C145.34 34.3809 146.058 35.0983 146.94 35.0983C147.822 35.0983 148.54 34.3809 148.54 33.499ZM99.5738 30.2655C99.1771 30.4978 98.9332 30.9229 98.9332 31.3826V38.183C98.9332 38.7574 98.4657 39.2249 97.8913 39.2249H92.5386L93.5434 40.9417C93.7757 41.3382 94.2008 41.5821 94.6605 41.5821H97.8913C99.7656 41.5821 101.29 40.0573 101.29 38.183V29.2607L99.5738 30.2655ZM168.015 24.4025C167.618 24.6348 167.375 25.0601 167.375 25.5198V34.1327C167.375 34.7099 166.907 35.1794 166.333 35.1794L160.595 35.1747V26.4677L158.878 27.4726C158.482 27.7049 158.238 28.1299 158.238 28.5896V35.1747H151.924L151.927 35.1794H151.924L151.934 35.1908L152.929 36.8915C153.161 37.2882 153.587 37.5318 154.046 37.5318H166.333C168.207 37.5318 169.732 36.0069 169.732 34.1327V23.3977L168.015 24.4025ZM79.6465 29.0313L78.486 27.8707L77.3255 29.0313C77.1855 29.1713 77.1085 29.3573 77.1085 29.5554C77.1085 29.7534 77.1855 29.9396 77.3255 30.0796L78.486 31.2402L79.6465 30.0796C79.7865 29.9396 79.8635 29.7534 79.8635 29.5554C79.8635 29.3573 79.7865 29.1713 79.6465 29.0313ZM83.7094 29.0313L82.5489 27.8709L81.3885 29.0313C81.2485 29.1713 81.1712 29.3573 81.1712 29.5554C81.1712 29.7534 81.2485 29.9396 81.3885 30.0796L82.5489 31.2402L83.7094 30.0796C83.8494 29.9396 83.9265 29.7534 83.9265 29.5554C83.9265 29.3573 83.8494 29.1713 83.7094 29.0313Z" fill="white"/>
</svg>
